<svg width="41" height="41" viewBox="0 0 41 41" fill="none" xmlns="http://www.w3.org/2000/svg">
<path d="M35.875 17.0833C35.875 29.0416 20.5 39.2916 20.5 39.2916C20.5 39.2916 5.125 29.0416 5.125 17.0833C5.125 13.0056 6.74486 9.09492 9.62823 6.21155C12.5116 3.32817 16.4223 1.70831 20.5 1.70831C24.5777 1.70831 28.4884 3.32817 31.3718 6.21155C34.2551 9.09492 35.875 13.0056 35.875 17.0833Z" stroke="#024A36" stroke-width="3.41667" stroke-linecap="round" stroke-linejoin="round"/>
<path d="M20.5 22.2083C23.3305 22.2083 25.625 19.9138 25.625 17.0833C25.625 14.2529 23.3305 11.9583 20.5 11.9583C17.6695 11.9583 15.375 14.2529 15.375 17.0833C15.375 19.9138 17.6695 22.2083 20.5 22.2083Z" stroke="#024A36" stroke-width="3.41667" stroke-linecap="round" stroke-linejoin="round"/>
</svg>
