<svg width="48" height="50" viewBox="0 0 48 50" fill="none" xmlns="http://www.w3.org/2000/svg">
<path d="M24 49.0068C37.2548 49.0068 48 38.2302 48 24.9365C48 11.6429 37.2548 0.866211 24 0.866211C10.7452 0.866211 0 11.6429 0 24.9365C0 38.2302 10.7452 49.0068 24 49.0068Z" fill="#25D366"/>
<path fill-rule="evenodd" clip-rule="evenodd" d="M24.7911 38.3282H24.7852C22.3967 38.3273 20.0498 37.7263 17.9654 36.586L10.4 38.5764L12.4246 31.1595C11.1758 28.9889 10.5186 26.5266 10.5197 24.004C10.5228 16.1124 16.9248 9.69199 24.791 9.69199C28.6087 9.69364 32.1918 11.1842 34.8862 13.8897C37.5806 16.595 39.0637 20.191 39.0622 24.0153C39.059 31.9051 32.6595 38.3249 24.7911 38.3282ZM18.3159 33.9949L18.749 34.2527C20.5702 35.3366 22.6578 35.9101 24.7863 35.9109H24.7911C31.3289 35.9109 36.6499 30.5741 36.6526 24.0145C36.6538 20.8357 35.4212 17.8469 33.1817 15.5982C30.9422 13.3496 27.964 12.1106 24.7958 12.1095C18.253 12.1095 12.9318 17.4457 12.9292 24.0049C12.9283 26.2527 13.5554 28.4419 14.7428 30.3359L15.0248 30.786L13.8265 35.176L18.3159 33.9949ZM31.4924 27.0969C31.7411 27.2174 31.9091 27.2988 31.9808 27.4189C32.0699 27.568 32.0699 28.2841 31.7729 29.1196C31.4756 29.955 30.0511 30.7174 29.3659 30.82C28.7516 30.9122 27.9742 30.9506 27.12 30.6783C26.6021 30.5135 25.9379 30.2935 25.0871 29.925C21.7442 28.4773 19.4851 25.2278 19.0581 24.6136C19.0282 24.5706 19.0072 24.5405 18.9956 24.5249L18.9927 24.521C18.804 24.2685 17.5395 22.5765 17.5395 20.8253C17.5395 19.1779 18.3464 18.3145 18.7178 17.917C18.7432 17.8898 18.7666 17.8648 18.7876 17.8418C19.1144 17.4837 19.5008 17.3942 19.7385 17.3942C19.9762 17.3942 20.2141 17.3964 20.4219 17.4069C20.4475 17.4082 20.4742 17.408 20.5018 17.4079C20.7096 17.4067 20.9686 17.4051 21.2242 18.0208C21.3225 18.2578 21.4664 18.609 21.6181 18.9795C21.925 19.7287 22.264 20.5565 22.3236 20.6763C22.4128 20.8553 22.4722 21.0641 22.3534 21.3029C22.3355 21.3387 22.319 21.3725 22.3032 21.4047C22.214 21.5875 22.1483 21.722 21.9968 21.8994C21.9372 21.9692 21.8756 22.0444 21.814 22.1196C21.6914 22.2695 21.5687 22.4193 21.4619 22.526C21.2834 22.7043 21.0975 22.8978 21.3055 23.2559C21.5136 23.6139 22.2292 24.785 23.2893 25.7333C24.4288 26.7527 25.4192 27.1836 25.9212 27.402C26.0192 27.4446 26.0986 27.4792 26.1569 27.5084C26.5134 27.6875 26.7214 27.6575 26.9294 27.4189C27.1374 27.1802 27.8208 26.3746 28.0585 26.0166C28.2962 25.6587 28.534 25.7183 28.8608 25.8376C29.1877 25.9571 30.9408 26.8221 31.2974 27.0011C31.367 27.0361 31.4321 27.0676 31.4924 27.0969Z" fill="#FDFDFD"/>
</svg>
